Set in the mountainous Nishiyoshino region of Nara Prefecture, the film sketches the dissolution of a family suffering from the economic decline of their village. A vital railroad project was to have been constructed, employing the father of the family, but it was cancelled.
Naomi Kawase's first film.
1997 Cannes Festival - Camera d'or winner.

General
Unique ID                                : 243796404835735703662090257174028772176 (0xB7697AC9BBC9C7198F84793C19626350)
Complete name                            : Moe.no.Suzaku.DVDRip.x264.mkv
Format                                   : Matroska
Format version                           : Version 2
File size                                : 2.29 GiB
Duration                                 : 1h 36mn
Overall bit rate                         : 3 386 Kbps
Encoded date                             : UTC 2011-03-27 19:20:51
Writing application                      : mkvmerge v3.0.0 ('Hang up your Hang-Ups') built on Dec 12 2009 15:20:35
Writing library                          : libebml v0.7.9 + libmatroska v0.8.1

Video
ID                                       : 1
Format                                   : AVC
Format/Info                              : Advanced Video Codec
Format profile                           : High@L3.1
Format settings, CABAC                   : Yes
Format settings, ReFrames                : 4 frames
Codec ID                                 : V_MPEG4/ISO/AVC
Duration                                 : 1h 36mn
Bit rate                                 : 3 000 Kbps
Width                                    : 652 pixels
Height                                   : 476 pixels
Display aspect ratio                     : 1.622
Original display aspect ratio            : 1.623
Frame rate mode                          : Constant
Frame rate                               : 23.976 fps
Color space                              : YUV
Chroma subsampling                       : 4:2:0
Bit depth                                : 8 bits
Scan type                                : Progressive
Bits/(Pixel*Frame)                       : 0.403
Stream size                              : 1.99 GiB (87%)
Writing library                          : x264 core 112 r1867 22bfd31
Encoding settings                        : cabac=1 / ref=3 / deblock=1:-2:-2 / analyse=0x3:0x113 / me=tesa / subme=8 / psy=1 / psy_rd=1.00:0.25 / mixed_ref=1 / me_range=32 / chroma_me=1 / trellis=2 / 8x8dct=1 / cqm=0 / deadzone=6,6 / fast_pskip=1 / chroma_qp_offset=-4 / threads=6 / sliced_threads=0 / nr=0 / decimate=0 / interlaced=0 / constrained_intra=0 / bframes=3 / b_pyramid=2 / b_adapt=2 / b_bias=0 / direct=3 / weightb=1 / open_gop=0 / weightp=2 / keyint=250 / keyint_min=23 / scenecut=40 / intra_refresh=0 / rc_lookahead=40 / rc=2pass / mbtree=1 / bitrate=3000 / ratetol=1.0 / qcomp=0.80 / qpmin=10 / qpmax=51 / qpstep=4 / cplxblur=20.0 / qblur=0.5 / vbv_maxrate=17500 / vbv_bufsize=14000 / nal_hrd=none / ip_ratio=1.10 / aq=1:0.50
Default                                  : Yes
Forced                                   : No

Audio
ID                                       : 2
Format                                   : AC-3
Format/Info                              : Audio Coding 3
Mode extension                           : CM (complete main)
Format settings, Endianness              : Big
Codec ID                                 : A_AC3
Duration                                 : 1h 36mn
Bit rate mode                            : Constant
Bit rate                                 : 384 Kbps
Channel(s)                               : 2 channels
Channel positions                        : Front: L R
Sampling rate                            : 48.0 KHz
Bit depth                                : 16 bits
Compression mode                         : Lossy
Stream size                              : 266 MiB (11%)
Title                                    : Japanese
Language                                 : Japanese
Default                                  : Yes
Forced                                   : No

Text #1
ID                                       : 3
Format                                   : UTF-8
Codec ID                                 : S_TEXT/UTF8
Codec ID/Info                            : UTF-8 Plain Text
Title                                    : English
Language                                 : English
Default                                  : Yes
Forced                                   : No

Text #2
ID                                       : 4
Format                                   : UTF-8
Codec ID                                 : S_TEXT/UTF8
Codec ID/Info                            : UTF-8 Plain Text
Title                                    : Spanish
Language                                 : Spanish
Default                                  : No
Forced                                   : No

Text #3
ID                                       : 5
Format                                   : UTF-8
Codec ID                                 : S_TEXT/UTF8
Codec ID/Info                            : UTF-8 Plain Text
Title                                    : Russian
Language                                 : Russian
Default                                  : No
Forced                                   : No

Text #4
ID                                       : 6
Format                                   : UTF-8
Codec ID                                 : S_TEXT/UTF8
Codec ID/Info                            : UTF-8 Plain Text
Title                                    : Turkish
Language                                 : Turkish
Default                                  : No
Forced                                   : No